<?xml version="1.0" standalone="no"?>
<!DOCTYPE svg PUBLIC "-//W3C//DTD SVG 20010904//EN"
 "http://www.w3.org/TR/2001/REC-SVG-20010904/DTD/svg10.dtd">
<svg version="1.0" xmlns="http://www.w3.org/2000/svg"
 width="800.000000pt" height="800.000000pt" viewBox="0 0 800.000000 800.000000"
 preserveAspectRatio="xMidYMid meet">
<metadata>
Created by potrace 1.11, written by Peter Selinger 2001-2013
</metadata>
<g transform="translate(0.000000,800.000000) scale(0.100000,-0.100000)"
fill="#000000" stroke="none">
<path d="M5715 7989 c-125 -17 -139 -20 -210 -39 -22 -6 -51 -13 -64 -16 -40
-8 -214 -75 -238 -91 -13 -9 -23 -12 -23 -8 0 3 -12 -2 -27 -13 -16 -10 -48
-29 -73 -41 -25 -13 -66 -38 -93 -57 -26 -19 -49 -34 -52 -34 -5 0 -14 -7
-109 -86 -77 -65 -162 -152 -228 -234 -56 -69 -128 -176 -128 -189 0 -5 -4
-11 -8 -13 -8 -3 -75 -118 -75 -128 0 -3 -13 -33 -28 -67 -30 -66 -110 -308
-124 -373 0 -3 -11 -39 -24 -80 -13 -41 -24 -82 -26 -90 -2 -8 -18 -64 -35
-125 -18 -60 -33 -114 -35 -120 -1 -5 -8 -30 -15 -55 -8 -25 -15 -49 -15 -55
-1 -5 -7 -26 -13 -46 -7 -20 -14 -45 -16 -55 -2 -11 -25 -96 -50 -188 -26 -93
-44 -171 -41 -174 2 -3 0 -10 -5 -17 -5 -6 -11 -20 -13 -31 -35 -184 -89 -261
-202 -289 -53 -12 -71 -15 -225 -31 -25 -2 -58 -6 -75 -8 -16 -2 -59 -7 -95
-10 -36 -4 -76 -9 -90 -11 -14 -3 -50 -7 -80 -9 -30 -3 -64 -7 -75 -10 -11 -2
-49 -7 -85 -10 -36 -4 -76 -9 -90 -11 -14 -3 -52 -7 -84 -10 -33 -3 -71 -7
-85 -10 -23 -3 -65 -9 -166 -20 -16 -2 -50 -6 -75 -10 -25 -3 -65 -8 -90 -11
-106 -11 -150 -16 -245 -29 -22 -4 -58 -8 -79 -10 -39 -4 -116 -13 -166 -20
-22 -3 -48 -6 -170 -20 -19 -3 -51 -7 -70 -10 -19 -3 -55 -7 -80 -9 -25 -3
-67 -8 -95 -11 -27 -4 -59 -8 -70 -10 -122 -15 -147 -44 -160 -180 -11 -117
-21 -218 -29 -290 -2 -16 -6 -59 -10 -95 -4 -36 -9 -76 -12 -90 -2 -14 -6 -45
-9 -70 -2 -25 -8 -67 -12 -95 -10 -69 -10 -172 0 -182 5 -4 36 -8 70 -7 57 1
92 4 187 18 19 3 55 8 80 10 25 3 61 7 80 10 19 3 60 8 90 11 30 3 66 7 80 10
14 2 52 6 85 10 33 3 74 8 90 10 17 3 55 7 85 11 98 10 124 13 165 19 22 2 63
7 90 11 28 3 66 7 85 10 41 5 95 11 165 19 56 5 123 14 175 22 19 3 49 6 65 8
17 1 55 6 85 10 63 9 82 11 164 19 32 3 66 8 75 10 14 5 56 10 166 21 17 2 30
4 30 5 0 3 59 9 123 11 95 4 117 -34 81 -139 -11 -31 -21 -61 -23 -67 -1 -5
-10 -37 -20 -70 -10 -33 -20 -68 -22 -78 -2 -10 -5 -26 -8 -35 -3 -9 -8 -31
-11 -49 -3 -18 -9 -43 -14 -56 -6 -14 -7 -28 -4 -31 4 -3 1 -6 -6 -6 -7 0 -10
-4 -7 -8 9 -15 -41 -62 -88 -82 -25 -12 -74 -23 -108 -26 -104 -9 -131 -11
-188 -18 -30 -4 -75 -9 -100 -11 -25 -3 -61 -7 -80 -10 -19 -2 -62 -7 -95 -10
-33 -3 -78 -8 -100 -10 -22 -3 -62 -8 -90 -10 -27 -3 -70 -8 -95 -11 -25 -3
-61 -7 -80 -9 -19 -2 -87 -11 -150 -20 -63 -10 -124 -18 -135 -20 -11 -1 -45
-6 -75 -11 -30 -4 -58 -7 -62 -6 -5 1 -8 -1 -8 -6 0 -4 -19 -8 -43 -9 -38 -3
-82 -9 -82 -13 0 -1 -18 -4 -39 -6 -104 -13 -425 -118 -441 -145 -4 -5 -15 -9
-26 -9 -10 0 -19 -4 -19 -10 0 -5 -4 -10 -10 -10 -15 0 -150 -83 -150 -92 0
-4 -6 -8 -13 -8 -7 0 -22 -8 -33 -17 -10 -10 -36 -31 -57 -46 -21 -16 -78 -68
-127 -117 -255 -253 -437 -613 -486 -965 -2 -16 -6 -41 -9 -55 -10 -46 -12
-334 -3 -415 5 -44 11 -93 12 -110 2 -16 6 -37 9 -45 3 -8 15 -52 27 -98 54
-217 181 -464 329 -643 43 -52 198 -208 237 -239 96 -76 304 -210 324 -210 6
0 31 -11 58 -24 52 -26 83 -39 127 -54 17 -6 39 -13 50 -18 11 -4 25 -8 30
-10 195 -54 291 -68 480 -68 169 0 259 7 325 24 19 5 51 12 70 15 66 11 275
87 365 133 80 40 250 147 281 176 7 6 31 27 55 46 85 70 236 230 263 279 5 9
12 18 16 21 14 11 92 139 123 200 17 36 34 67 37 70 7 7 79 186 84 207 1 10 6
25 9 33 8 19 76 243 88 290 15 55 15 55 69 245 29 99 54 191 57 204 2 14 6 28
9 33 3 4 7 16 9 26 1 9 8 37 15 62 7 25 14 52 15 60 2 8 4 15 5 15 1 0 3 7 5
15 2 8 15 58 30 110 14 52 27 101 29 110 2 8 6 22 9 30 5 14 21 75 32 124 15
63 42 123 70 151 20 21 81 43 135 50 98 12 135 16 176 19 21 2 39 5 39 6 0 1
16 3 36 5 19 1 62 6 95 10 32 4 75 9 94 11 66 6 138 15 161 19 12 3 47 7 76
10 54 5 109 11 173 20 19 2 60 7 90 10 30 4 66 8 80 11 14 2 50 7 80 10 30 3
69 7 85 10 17 3 50 7 75 10 25 2 61 7 81 9 20 3 55 8 79 10 41 4 98 12 150 20
23 4 94 12 175 20 17 2 30 4 30 5 0 1 16 3 35 5 19 2 55 7 80 10 25 3 110 7
190 10 282 9 355 25 427 91 35 33 80 115 87 159 14 86 17 134 21 280 4 154 6
183 21 305 16 132 3 193 -43 211 -26 10 -195 7 -249 -5 -18 -4 -59 -9 -171
-21 -17 -2 -49 -6 -71 -10 -22 -3 -62 -8 -88 -11 -27 -2 -62 -7 -79 -10 -27
-5 -84 -11 -160 -18 -16 -2 -48 -6 -70 -9 -22 -3 -62 -8 -90 -12 -27 -3 -70
-8 -95 -11 -25 -3 -56 -7 -70 -8 -91 -10 -240 -28 -265 -32 -16 -2 -48 -6 -70
-8 -22 -3 -56 -7 -75 -10 -54 -8 -130 -17 -180 -22 -25 -2 -63 -6 -85 -10 -74
-10 -100 -14 -150 -19 -44 -5 -139 -17 -237 -30 -81 -12 -170 -17 -191 -11
-23 5 -56 56 -37 56 5 0 7 6 4 13 -2 7 3 33 12 57 8 25 18 56 20 69 3 14 8 29
12 35 3 6 8 16 9 21 36 145 45 184 49 205 19 108 85 176 179 185 43 4 134 14
175 20 19 3 60 7 90 10 30 3 71 7 90 10 19 3 55 7 80 10 25 3 61 7 80 10 19 3
63 7 98 10 35 3 67 7 70 9 4 2 36 7 72 10 36 4 81 9 100 11 19 3 53 7 75 10
56 6 117 14 209 26 43 6 95 12 115 13 36 3 115 14 161 22 14 3 40 7 59 9 18 3
37 8 42 11 5 3 19 7 32 10 51 9 65 13 127 34 102 35 117 41 253 109 70 35 127
68 127 73 0 4 5 8 10 8 10 0 103 62 126 84 7 6 31 27 55 46 78 63 172 163 272
290 94 118 245 430 272 560 2 8 10 42 19 75 8 33 18 81 21 105 2 25 8 63 12
85 9 50 9 282 0 355 -3 30 -9 78 -12 105 -6 52 -12 90 -15 90 -1 0 -4 14 -6
30 -8 48 -50 190 -74 250 -29 72 -77 175 -95 205 -11 19 -29 52 -40 73 -11 20
-23 37 -27 37 -5 0 -8 5 -8 10 0 25 -164 225 -252 308 -65 61 -119 107 -150
127 -8 6 -48 32 -89 59 -82 55 -190 113 -259 140 -25 10 -58 23 -75 30 -28 12
-147 49 -152 48 -2 0 -17 4 -35 9 -18 6 -42 12 -53 14 -11 1 -36 6 -55 9 -19
4 -51 9 -70 12 -55 9 -369 11 -425 3z m346 -994 c27 -7 49 -12 49 -10 0 4 50
-15 110 -43 114 -52 246 -172 311 -284 21 -36 39 -69 39 -71 0 -3 7 -21 15
-41 8 -20 15 -38 16 -41 0 -2 5 -19 10 -37 36 -118 31 -293 -12 -427 -44 -134
-154 -285 -264 -361 -64 -44 -132 -80 -139 -73 -3 4 -6 0 -6 -7 0 -7 -3 -10
-7 -7 -3 4 -11 3 -17 -2 -17 -13 -194 -49 -276 -56 -8 -1 -37 -4 -65 -8 -67
-10 -120 -17 -180 -22 -27 -3 -63 -7 -80 -10 -16 -3 -51 -7 -77 -10 -27 -3
-69 -8 -95 -11 -27 -3 -61 -8 -78 -9 -155 -17 -180 -21 -195 -30 -5 -3 -10 -2
-10 4 0 7 -8 7 -22 2 -38 -13 -102 -12 -122 2 -24 18 -23 73 4 156 11 35 22
74 24 85 2 12 9 33 15 49 6 15 13 38 15 50 2 12 11 47 20 77 31 113 44 161 45
163 0 1 2 9 5 17 8 23 57 202 62 227 2 12 9 35 15 50 6 16 12 35 14 43 18 77
62 200 97 270 90 179 289 329 482 364 16 3 30 7 32 9 10 10 222 3 265 -8z
m-2978 -4434 c5 -5 10 -20 10 -34 0 -20 -51 -213 -108 -412 -8 -27 -36 -124
-61 -215 -53 -191 -112 -389 -120 -401 -3 -5 -7 -19 -9 -31 -8 -40 -66 -151
-104 -198 -57 -71 -142 -150 -161 -150 -5 0 -10 -4 -10 -10 0 -5 -6 -10 -13
-10 -7 0 -19 -6 -25 -12 -7 -7 -16 -13 -20 -13 -4 -1 -18 -7 -31 -14 -27 -15
-60 -26 -153 -50 -86 -22 -249 -21 -333 4 -128 36 -262 116 -340 201 -55 60
-75 84 -75 92 0 5 -8 17 -18 28 -42 46 -124 287 -106 315 2 4 1 10 -4 13 -8 5
-8 22 3 148 5 65 31 158 63 228 17 39 114 191 119 187 1 -2 29 22 61 52 50 48
135 100 217 133 11 4 65 17 120 27 87 17 147 27 295 47 19 3 46 7 60 10 14 2
53 6 88 10 35 3 72 7 84 9 11 3 46 7 77 10 31 3 70 8 86 10 17 2 57 7 90 10
33 4 74 9 90 11 17 2 55 7 85 10 30 4 56 8 58 9 7 6 76 -5 85 -14z"/>
</g>
</svg>
