<svg width="51" height="50" viewBox="0 0 51 50" fill="none" xmlns="http://www.w3.org/2000/svg">
<path d="M25.5029 2.14862e-06C11.4125 -0.00573574 0 11.4815 0 25.6599C0 36.8717 7.1392 46.4023 17.0817 49.9025C18.4206 50.241 18.2155 49.2828 18.2155 48.6286V44.1818C10.4837 45.0941 10.1704 39.9415 9.65188 39.0808C8.60351 37.2791 6.12501 36.8201 6.86571 35.9594C8.6263 35.0471 10.4211 36.1889 12.5007 39.2816C14.0049 41.5251 16.9392 41.1464 18.4263 40.7735C18.7511 39.4251 19.4462 38.2201 20.4034 37.2848C12.3925 35.8389 9.05363 30.9158 9.05363 25.0631C9.05363 22.2229 9.98235 19.6121 11.8056 17.5063C10.6433 14.0349 11.9139 11.0627 12.0848 10.6208C15.3952 10.3225 18.8366 13.0078 19.1043 13.2201C20.9846 12.7094 23.1326 12.4398 25.537 12.4398C27.9529 12.4398 30.1066 12.7209 32.0039 13.2373C32.6478 12.7439 35.8385 10.4372 38.9152 10.7184C39.0804 11.1602 40.3225 14.0636 39.2286 17.4891C41.0746 19.6006 42.0148 22.2343 42.0148 25.0803C42.0148 30.9445 38.6531 35.8733 30.6194 37.2963C31.3075 37.9778 31.8539 38.7905 32.2266 39.687C32.5993 40.5836 32.7909 41.5459 32.7902 42.5178V48.9729C32.8358 49.4893 32.7902 50 33.6448 50C43.7355 46.5745 51 36.975 51 25.6656C51 11.4815 39.5818 2.14862e-06 25.5029 2.14862e-06Z" fill="white"/>
</svg>
