<svg width="48" height="46" viewBox="0 0 48 46" fill="none" xmlns="http://www.w3.org/2000/svg">
<path d="M24.0054 11.2062C17.1949 11.2062 11.7015 16.4718 11.7015 23C11.7015 29.5282 17.1949 34.7938 24.0054 34.7938C30.8158 34.7938 36.3092 29.5282 36.3092 23C36.3092 16.4718 30.8158 11.2062 24.0054 11.2062ZM24.0054 30.6675C19.6042 30.6675 16.0062 27.2289 16.0062 23C16.0062 18.7711 19.5935 15.3325 24.0054 15.3325C28.4172 15.3325 32.0045 18.7711 32.0045 23C32.0045 27.2289 28.4065 30.6675 24.0054 30.6675ZM39.6823 10.7238C39.6823 12.2532 38.3973 13.4746 36.8125 13.4746C35.217 13.4746 33.9427 12.2429 33.9427 10.7238C33.9427 9.20462 35.2277 7.97289 36.8125 7.97289C38.3973 7.97289 39.6823 9.20462 39.6823 10.7238ZM47.8313 13.5157C47.6493 9.83075 46.7712 6.56666 43.9549 3.87738C41.1494 1.18811 37.7441 0.346424 33.8998 0.161665C29.9378 -0.0538882 18.0622 -0.0538882 14.1002 0.161665C10.2666 0.33616 6.86135 1.17784 4.04506 3.86712C1.22878 6.5564 0.361405 9.82048 0.168656 13.5054C-0.0562186 17.3032 -0.0562186 28.6865 0.168656 32.4843C0.350697 36.1693 1.22878 39.4333 4.04506 42.1226C6.86135 44.8119 10.2559 45.6536 14.1002 45.8383C18.0622 46.0539 29.9378 46.0539 33.8998 45.8383C37.7441 45.6638 41.1494 44.8222 43.9549 42.1226C46.7605 39.4333 47.6386 36.1693 47.8313 32.4843C48.0562 28.6865 48.0562 17.3135 47.8313 13.5157ZM42.7128 36.5593C41.8775 38.5711 40.2606 40.1211 38.151 40.9319C34.9921 42.1329 27.4963 41.8557 24.0054 41.8557C20.5144 41.8557 13.0079 42.1226 9.85968 40.9319C7.76085 40.1313 6.14389 38.5814 5.29794 36.5593C4.04506 33.5313 4.33419 26.3462 4.33419 23C4.33419 19.6538 4.05577 12.4584 5.29794 9.4407C6.13318 7.42887 7.75014 5.87895 9.85968 5.06806C13.0186 3.86712 20.5144 4.14426 24.0054 4.14426C27.4963 4.14426 35.0028 3.87738 38.151 5.06806C40.2499 5.86868 41.8668 7.41861 42.7128 9.4407C43.9656 12.4687 43.6765 19.6538 43.6765 23C43.6765 26.3462 43.9656 33.5416 42.7128 36.5593Z" fill="white"/>
</svg>
