<svg width="43" height="46" viewBox="0 0 43 46" fill="none" xmlns="http://www.w3.org/2000/svg">
<path d="M39.9286 2.875H3.06183C1.37254 2.875 0 4.17773 0 5.77695V40.223C0 41.8223 1.37254 43.125 3.06183 43.125H39.9286C41.6179 43.125 43 41.8223 43 40.223V5.77695C43 4.17773 41.6179 2.875 39.9286 2.875ZM12.996 37.375H6.62277V18.1664H13.0056V37.375H12.996ZM9.80937 15.543C7.76496 15.543 6.11406 13.9887 6.11406 12.084C6.11406 10.1793 7.76496 8.625 9.80937 8.625C11.8442 8.625 13.5047 10.1793 13.5047 12.084C13.5047 13.9977 11.8538 15.543 9.80937 15.543ZM36.8859 37.375H30.5127V28.0312C30.5127 25.8031 30.4647 22.9371 27.2013 22.9371C23.8804 22.9371 23.3717 25.3629 23.3717 27.8695V37.375H16.9984V18.1664H23.1125V20.7898H23.1989C24.0531 19.2805 26.1359 17.6902 29.2362 17.6902C35.6862 17.6902 36.8859 21.6703 36.8859 26.8453V37.375Z" fill="white"/>
</svg>
