<svg width="452" height="512" viewBox="0 0 452 512" fill="none" xmlns="http://www.w3.org/2000/svg">
<path d="M415.493 136H403.769L410.127 117.084C410.896 116.914 411.663 116.733 412.428 116.528C426.023 112.885 437.386 104.166 444.424 91.977C451.462 79.788 453.331 65.588 449.688 51.993L436.051 1.094L385.153 14.732C371.557 18.375 360.194 27.094 353.156 39.283C346.118 51.472 344.249 65.673 347.892 79.267C348.097 80.032 348.323 80.788 348.56 81.539L300.512 136H264.494V118.181L299.596 0H150.493V20.502C131.862 7.314 108.072 0 87.634 0H30.39L66.493 121.548V136H35.493C16.194 136 0.493042 151.701 0.493042 171V411C0.493042 430.299 16.194 446 35.493 446H180.493V482H150.493V512H300.493V482H270.493V446H415.493C434.792 446 450.493 430.299 450.493 411V171C450.493 151.701 434.793 136 415.493 136ZM379.137 54.283C382.168 49.033 387.061 45.279 392.917 43.71L414.837 37.836L420.711 59.756C422.28 65.611 421.475 71.727 418.444 76.976C415.413 82.225 410.52 85.98 404.665 87.549C398.812 89.118 392.699 88.313 387.45 85.285L387.438 85.278C382.192 82.247 378.439 77.355 376.87 71.502C375.301 65.648 376.107 59.532 379.137 54.283ZM365.752 107.4L372.441 111.262C372.442 111.263 372.443 111.263 372.444 111.264C372.445 111.264 372.446 111.265 372.446 111.265L379.135 115.127L356.707 181.853L319.179 160.186L365.752 107.4ZM309.953 189.5L335.934 204.5L254.24 346H219.598L309.953 189.5ZM274.044 166L272.426 167.833L283.973 174.5L210.494 301.77V201H219.494C240.869 201 258.799 186.014 263.36 166H274.044ZM111.493 171C103.222 171 96.493 164.271 96.493 156V131H234.493V156C234.493 164.271 227.764 171 219.493 171H111.493ZM180.493 201V346H150.493V201H180.493ZM87.634 30C110.671 30 142.09 44.377 150.339 65.001L154.333 75H180.493V30H259.39L238.301 101H91.686L70.597 30H87.634ZM30.493 171C30.493 168.243 32.736 166 35.493 166H67.627C72.188 186.014 90.118 201 111.493 201H120.493V346H30.493V171V171ZM240.493 482H210.493V446H240.493V482ZM420.493 411C420.493 413.757 418.25 416 415.493 416H35.493C32.736 416 30.493 413.757 30.493 411V376H420.493V411ZM420.493 346H288.88L361.914 219.5L373.461 226.167L393.685 166H415.493C418.25 166 420.493 168.243 420.493 171V346Z" fill="white"/>
</svg>
