<svg width="512" height="438" viewBox="0 0 512 438" fill="none" xmlns="http://www.w3.org/2000/svg">
<path d="M508.306 177.116C506.017 175.765 503.185 175.721 500.858 177.002L407.189 228.572V210.602C407.189 191.561 391.698 176.07 372.657 176.07H353.127C379.541 159.119 397.078 129.489 397.078 95.8401C397.078 78.9271 392.587 62.3131 384.09 47.7931C381.993 44.2101 377.39 43.0041 373.809 45.1031C370.227 47.1991 369.023 51.8021 371.119 55.3841C378.27 67.6031 382.049 81.5931 382.049 95.8411C382.049 140.08 346.058 176.071 301.819 176.071C257.58 176.071 221.589 140.08 221.589 95.8411C221.589 51.6021 257.58 15.6101 301.819 15.6101C320.66 15.6101 338.969 22.2701 353.372 34.3641C356.552 37.0331 361.29 36.6211 363.959 33.4401C366.628 30.2621 366.215 25.5221 363.036 22.8531C345.929 8.49008 324.189 0.580078 301.819 0.580078C255.297 0.580078 216.469 34.1061 208.197 78.2641C195.529 62.8931 176.353 53.0761 154.925 53.0761C116.872 53.0761 85.914 84.0351 85.914 122.088C85.914 143.928 96.123 163.417 112.007 176.072C92.984 176.093 77.514 191.575 77.514 210.603V211.82H46.918L10.735 194.679C5.96998 192.248 -0.155019 196.124 0.00298146 201.47V294.723C-0.158019 300.071 5.97798 303.946 10.735 301.515L46.918 284.374H77.515V402.885C77.515 421.927 93.006 437.418 112.047 437.418H307.723C311.873 437.418 315.238 434.054 315.238 429.903C315.238 425.752 311.874 422.388 307.723 422.388H112.047C101.293 422.388 92.544 413.639 92.544 402.884V210.603C92.544 199.849 101.293 191.1 112.047 191.1H372.657C383.411 191.1 392.16 199.848 392.16 210.603V402.886C392.16 413.64 383.411 422.39 372.657 422.39H337.781C333.631 422.39 330.266 425.754 330.266 429.905C330.266 434.056 333.63 437.42 337.781 437.42H372.657C391.698 437.42 407.189 421.929 407.189 402.887V343.24L500.858 394.81C505.628 397.631 512.168 393.767 511.997 388.227V183.586C511.997 180.928 510.593 178.468 508.306 177.116V177.116ZM15.032 213.345L37.712 224.09V272.105L15.032 282.85V213.345ZM52.742 269.346V226.849H77.515V269.346H52.742ZM100.943 122.088C100.943 92.3221 125.159 68.1051 154.925 68.1051C184.691 68.1051 208.908 92.3221 208.908 122.088C208.908 151.854 184.692 176.071 154.925 176.071C125.16 176.071 100.943 151.854 100.943 122.088ZM197.845 176.071C207.962 168.011 215.767 157.179 220.104 144.727C227.695 157.368 238.123 168.118 250.517 176.071H197.845ZM496.968 375.512L407.19 326.083V245.73L496.968 196.301V375.512Z" fill="white"/>
<path d="M263.508 95.8413C263.508 116.966 280.694 134.152 301.819 134.152C322.943 134.152 340.13 116.966 340.13 95.8413C340.13 74.7163 322.944 57.5303 301.819 57.5303C280.694 57.5303 263.508 74.7163 263.508 95.8413ZM325.1 95.8413C325.1 108.678 314.656 119.122 301.819 119.122C288.981 119.122 278.537 108.678 278.537 95.8413C278.537 83.0043 288.981 72.5593 301.819 72.5593C314.656 72.5603 325.1 83.0043 325.1 95.8413Z" fill="white"/>
<path d="M154.925 149.162C169.854 149.162 181.999 137.016 181.999 122.088C181.999 107.16 169.854 95.0151 154.925 95.0151C139.997 95.0151 127.851 107.16 127.851 122.088C127.852 137.017 139.997 149.162 154.925 149.162ZM154.925 110.044C161.567 110.044 166.97 115.447 166.97 122.088C166.97 128.73 161.567 134.133 154.925 134.133C148.284 134.133 142.881 128.73 142.881 122.088C142.881 115.447 148.284 110.044 154.925 110.044Z" fill="white"/>
<path d="M330.267 326.344V244.365C330.267 234.697 322.401 226.831 312.733 226.831H231.452C227.302 226.831 223.937 230.195 223.937 234.346C223.937 238.497 227.301 241.861 231.452 241.861H312.733C314.114 241.861 315.238 242.984 315.238 244.366V326.345C315.238 327.727 314.114 328.85 312.733 328.85H171.971C170.59 328.85 169.466 327.727 169.466 326.345V244.366C169.466 242.984 170.59 241.861 171.971 241.861H201.394C205.544 241.861 208.909 238.497 208.909 234.346C208.909 230.195 205.545 226.831 201.394 226.831H171.971C162.303 226.831 154.437 234.697 154.437 244.365V326.344C154.437 336.012 162.303 343.878 171.971 343.878H312.733C322.401 343.878 330.267 336.012 330.267 326.344Z" fill="white"/>
<path d="M282.778 369.998C278.628 369.998 275.264 373.362 275.264 377.513C275.264 381.664 278.628 385.028 282.778 385.028H301.523C305.673 385.028 309.038 381.664 309.038 377.513C309.038 373.362 305.674 369.998 301.523 369.998H282.778Z" fill="white"/>
<path d="M232.979 369.998C228.829 369.998 225.464 373.362 225.464 377.513C225.464 381.664 228.828 385.028 232.979 385.028H251.725C255.875 385.028 259.24 381.664 259.24 377.513C259.24 373.362 255.876 369.998 251.725 369.998H232.979Z" fill="white"/>
<path d="M183.179 369.998C179.029 369.998 175.664 373.362 175.664 377.513C175.664 381.664 179.029 385.028 183.179 385.028H201.925C206.075 385.028 209.44 381.664 209.44 377.513C209.44 373.362 206.076 369.998 201.925 369.998H183.179Z" fill="white"/>
</svg>
