<?xml version="1.0" encoding="iso-8859-1"?>
<!-- Generator: Adobe Illustrator 17.1.0, SVG Export Plug-In . SVG Version: 6.00 Build 0)  -->
<!DOCTYPE svg PUBLIC "-//W3C//DTD SVG 1.1//EN" "http://www.w3.org/Graphics/SVG/1.1/DTD/svg11.dtd">
<svg version="1.1" id="Capa_1" fill="#fff" xmlns="http://www.w3.org/2000/svg" xmlns:xlink="http://www.w3.org/1999/xlink" x="0px" y="0px"
	 viewBox="0 0 246 246" style="enable-background:new 0 0 246 246;" xml:space="preserve">
<path d="M123,148.479l123-46.59V73c0-4.142-3.025-7.5-7.167-7.5H213V50.667c0-18.84-14.994-34.167-33.833-34.167H67.5
	C48.66,16.5,33,31.827,33,50.667V65.5H7.833C3.691,65.5,0,68.858,0,73v28.889L123,148.479z M48,50.667
	C48,40.099,56.932,31.5,67.5,31.5h111.667C189.735,31.5,198,40.099,198,50.667V65.5H48V50.667z M246,117.929V222
	c0,4.142-3.025,7.5-7.167,7.5h-231C3.691,229.5,0,226.142,0,222V117.929l120.51,45.585c0.855,0.324,1.839,0.486,2.74,0.486
	s1.676-0.162,2.531-0.486L246,117.929z"/>
<g>
</g>
<g>
</g>
<g>
</g>
<g>
</g>
<g>
</g>
<g>
</g>
<g>
</g>
<g>
</g>
<g>
</g>
<g>
</g>
<g>
</g>
<g>
</g>
<g>
</g>
<g>
</g>
<g>
</g>
</svg>
