<svg width="210" height="50" viewBox="0 0 210 50" fill="none" xmlns="http://www.w3.org/2000/svg">
<path d="M18.9163 26.4418C18.7746 27.1645 18.4248 27.4375 17.6753 27.5205C14.6083 27.8524 11.5226 28.1195 8.49577 28.6912C3.32769 29.6653 -0.152926 34.3026 0.00517207 39.6915C0.155898 44.8117 4.08049 49.1677 9.19943 49.897C11.6705 50.2467 14.184 49.6995 16.295 48.3522C18.4059 47.0049 19.9781 44.9445 20.7332 42.5358C21.622 39.6998 22.3715 36.8174 23.1456 33.9466C23.3201 33.3019 23.5913 32.9958 24.3023 32.9161C28.3063 32.4664 32.3038 31.9628 36.3013 31.4575C37.5923 31.2915 39.2454 31.6184 40.0744 30.8095C40.9501 29.9549 40.5954 28.2432 40.7625 26.9048C41.0459 24.6231 41.0254 24.6472 38.776 24.9326C34.5631 25.4653 30.3436 25.949 26.1315 26.4883C25.3942 26.5829 25.2083 26.4145 25.4548 25.6951C25.6924 25.0015 25.9218 24.2937 26.0389 23.5727C26.1716 22.7571 26.6328 22.5239 27.3676 22.4435C30.0708 22.1464 32.774 21.8046 35.4773 21.4793C40.9566 20.8197 44.941 16.3044 45 10.747C44.9181 10.0185 44.8878 9.27839 44.7395 8.564C43.7287 3.69773 39.6927 0.233675 34.8146 0.0113121C29.9365 -0.211051 25.599 2.86304 24.1655 7.62809C23.3521 10.3354 22.587 13.0594 21.889 15.7983C21.6597 16.7002 21.2501 17.0105 20.3564 17.1101C15.7388 17.6261 11.1302 18.2194 6.51668 18.7695C5.97603 18.8342 5.55089 18.9006 5.48863 19.6133C5.34855 21.2238 5.16097 22.8309 4.94553 24.4339C4.86361 25.0653 5.04464 25.1898 5.63935 25.106C7.36451 24.8646 9.09703 24.6804 10.8271 24.4704C13.4574 24.1518 16.0902 23.8498 18.7164 23.498C19.5544 23.386 19.7674 23.6084 19.4709 24.4215C19.2344 25.0793 19.049 25.7548 18.9163 26.4418ZM16.6489 34.5233C16.0361 36.634 15.5168 38.7747 14.8287 40.859C14.2315 42.6669 12.4892 43.797 10.6346 43.8011C8.34095 43.8061 6.38151 42.0239 6.12921 39.7015C5.88346 37.4497 7.37352 35.1937 9.58279 34.783C11.7511 34.3789 13.9596 34.1955 16.15 33.9109C16.6472 33.8454 16.7988 34.008 16.6489 34.5233ZM28.3432 15.3063C28.9354 13.2992 29.4294 11.2606 30.0708 9.26926C30.772 7.0896 32.9379 5.86743 35.157 6.26072C37.2868 6.63907 38.8735 8.59055 38.8514 10.8075C38.8293 13.0245 37.2639 14.9395 35.0701 15.278C33.0624 15.5892 31.0341 15.7676 29.019 16.0339C28.3981 16.1161 28.131 16.0248 28.3432 15.3063Z" fill="white"/>
<path d="M88.041 27.0703H80.3027V35H75.5039V15.0938H88.8203V18.7988H80.3027V23.3789H88.041V27.0703ZM99.1973 24.377L97.6797 24.2676C96.2305 24.2676 95.3008 24.7233 94.8906 25.6348V35H90.2832V20.207H94.6035L94.7539 22.1074C95.5286 20.6582 96.6087 19.9336 97.9941 19.9336C98.4863 19.9336 98.9147 19.9883 99.2793 20.0977L99.1973 24.377ZM107.742 35.2734C105.473 35.2734 103.636 34.599 102.232 33.25C100.829 31.8919 100.127 30.1283 100.127 27.959V27.5762C100.127 26.0632 100.405 24.7279 100.961 23.5703C101.526 22.4128 102.346 21.5195 103.422 20.8906C104.497 20.2526 105.773 19.9336 107.25 19.9336C109.328 19.9336 110.969 20.5807 112.172 21.875C113.375 23.1602 113.977 24.9557 113.977 27.2617V29.0527H104.816C104.98 29.8822 105.34 30.5339 105.896 31.0078C106.452 31.4818 107.173 31.7188 108.057 31.7188C109.515 31.7188 110.654 31.2083 111.475 30.1875L113.58 32.6758C113.006 33.4688 112.19 34.1022 111.133 34.5762C110.085 35.041 108.954 35.2734 107.742 35.2734ZM107.223 23.4883C105.874 23.4883 105.072 24.3815 104.816 26.168H109.465V25.8125C109.483 25.0742 109.296 24.5046 108.904 24.1035C108.512 23.6934 107.952 23.4883 107.223 23.4883ZM123 35.2734C120.73 35.2734 118.894 34.599 117.49 33.25C116.087 31.8919 115.385 30.1283 115.385 27.959V27.5762C115.385 26.0632 115.663 24.7279 116.219 23.5703C116.784 22.4128 117.604 21.5195 118.68 20.8906C119.755 20.2526 121.031 19.9336 122.508 19.9336C124.586 19.9336 126.227 20.5807 127.43 21.875C128.633 23.1602 129.234 24.9557 129.234 27.2617V29.0527H120.074C120.238 29.8822 120.598 30.5339 121.154 31.0078C121.71 31.4818 122.43 31.7188 123.314 31.7188C124.773 31.7188 125.912 31.2083 126.732 30.1875L128.838 32.6758C128.264 33.4688 127.448 34.1022 126.391 34.5762C125.342 35.041 124.212 35.2734 123 35.2734ZM122.48 23.4883C121.132 23.4883 120.329 24.3815 120.074 26.168H124.723V25.8125C124.741 25.0742 124.554 24.5046 124.162 24.1035C123.77 23.6934 123.21 23.4883 122.48 23.4883ZM135.961 35H131.34V14H135.961V35ZM138.23 27.4668C138.23 25.9902 138.518 24.6777 139.092 23.5293C139.666 22.3717 140.491 21.4831 141.566 20.8633C142.642 20.2435 143.904 19.9336 145.354 19.9336C147.568 19.9336 149.314 20.6217 150.59 21.998C151.866 23.3652 152.504 25.2292 152.504 27.5898V27.7539C152.504 30.0599 151.861 31.8919 150.576 33.25C149.3 34.599 147.568 35.2734 145.381 35.2734C143.275 35.2734 141.585 34.6445 140.309 33.3867C139.033 32.1198 138.344 30.4062 138.244 28.2461L138.23 27.4668ZM142.838 27.7539C142.838 29.1211 143.052 30.1237 143.48 30.7617C143.909 31.3997 144.542 31.7188 145.381 31.7188C147.021 31.7188 147.86 30.4564 147.896 27.9316V27.4668C147.896 24.8145 147.049 23.4883 145.354 23.4883C143.813 23.4883 142.979 24.6322 142.852 26.9199L142.838 27.7539ZM162.867 35C162.703 34.6992 162.557 34.2572 162.43 33.6738C161.582 34.7402 160.397 35.2734 158.875 35.2734C157.48 35.2734 156.296 34.8542 155.32 34.0156C154.345 33.168 153.857 32.1061 153.857 30.8301C153.857 29.2259 154.45 28.0137 155.635 27.1934C156.82 26.373 158.542 25.9629 160.803 25.9629H162.225V25.1836C162.225 23.8255 161.637 23.1465 160.461 23.1465C159.367 23.1465 158.82 23.6842 158.82 24.7598H154.213C154.213 23.3288 154.819 22.1667 156.031 21.2734C157.253 20.3802 158.807 19.9336 160.693 19.9336C162.58 19.9336 164.07 20.3939 165.164 21.3145C166.258 22.235 166.818 23.4974 166.846 25.1016V31.6504C166.864 33.0085 167.074 34.0475 167.475 34.7676V35H162.867ZM159.982 31.9922C160.557 31.9922 161.031 31.8691 161.404 31.623C161.787 31.377 162.061 31.099 162.225 30.7891V28.4238H160.885C159.281 28.4238 158.479 29.1439 158.479 30.584C158.479 31.0033 158.62 31.3451 158.902 31.6094C159.185 31.8646 159.545 31.9922 159.982 31.9922ZM168.828 27.4941C168.828 25.1517 169.334 23.306 170.346 21.957C171.357 20.6081 172.77 19.9336 174.584 19.9336C175.906 19.9336 177.018 20.4531 177.92 21.4922V14H182.541V35H178.398L178.166 33.4141C177.218 34.6536 176.015 35.2734 174.557 35.2734C172.798 35.2734 171.403 34.599 170.373 33.25C169.343 31.901 168.828 29.9824 168.828 27.4941ZM173.436 27.7812C173.436 30.4062 174.201 31.7188 175.732 31.7188C176.753 31.7188 177.482 31.2904 177.92 30.4336V24.8008C177.501 23.9258 176.781 23.4883 175.76 23.4883C174.338 23.4883 173.568 24.6367 173.449 26.9336L173.436 27.7812ZM192.316 35.2734C190.047 35.2734 188.21 34.599 186.807 33.25C185.403 31.8919 184.701 30.1283 184.701 27.959V27.5762C184.701 26.0632 184.979 24.7279 185.535 23.5703C186.1 22.4128 186.921 21.5195 187.996 20.8906C189.072 20.2526 190.348 19.9336 191.824 19.9336C193.902 19.9336 195.543 20.5807 196.746 21.875C197.949 23.1602 198.551 24.9557 198.551 27.2617V29.0527H189.391C189.555 29.8822 189.915 30.5339 190.471 31.0078C191.027 31.4818 191.747 31.7188 192.631 31.7188C194.089 31.7188 195.229 31.2083 196.049 30.1875L198.154 32.6758C197.58 33.4688 196.764 34.1022 195.707 34.5762C194.659 35.041 193.529 35.2734 192.316 35.2734ZM191.797 23.4883C190.448 23.4883 189.646 24.3815 189.391 26.168H194.039V25.8125C194.057 25.0742 193.87 24.5046 193.479 24.1035C193.087 23.6934 192.526 23.4883 191.797 23.4883ZM209.365 24.377L207.848 24.2676C206.398 24.2676 205.469 24.7233 205.059 25.6348V35H200.451V20.207H204.771L204.922 22.1074C205.697 20.6582 206.777 19.9336 208.162 19.9336C208.654 19.9336 209.083 19.9883 209.447 20.0977L209.365 24.377Z" fill="white"/>
</svg>
