<svg width="240" height="240" viewBox="0 0 240 240" fill="none" xmlns="http://www.w3.org/2000/svg">
<g clip-path="url(#clip0)">
<path d="M184.5 184H176.5V200H104.5V208H176.5V220C176.5 226.627 171.127 232 164.5 232H76.5C72.2129 231.994 68.2519 229.709 66.0996 226L59.1719 230C62.7578 236.178 69.3574 239.986 76.5 240H164.5C175.541 239.986 184.486 231.041 184.5 220V184Z" fill="white"/>
<path d="M116.5 216H124.5V224H116.5V216ZM140.5 108V100H128.297C126.303 74.4746 106.025 54.1973 80.5 52.2031V40H72.5V52.2031C69.8047 52.4102 67.1309 52.8281 64.5 53.4512V32H128.5V24H64.5V20C64.5 13.3731 69.873 8 76.5 8H164.5C167.422 8 170.244 9.06641 172.436 11L177.729 5C174.076 1.77539 169.371 -0.00195152 164.5 1.60801e-06H76.5C65.459 0.0136735 56.5137 8.95899 56.5 20V56C38.4883 63.5449 26.2129 80.5313 24.7031 100H12.5V108H24.7129C26.5996 133.574 46.9258 153.914 72.5 155.816V168H80.5V155.816C106.074 153.914 126.4 133.574 128.287 108H140.5ZM72.5 140V147.816C66.9199 147.314 61.4902 145.746 56.5 143.199V136C56.5 124.955 65.4551 116 76.5 116C87.5449 116 96.5 124.955 96.5 136V143.199C91.5117 145.75 86.0801 147.32 80.5 147.828V140H72.5ZM64.5 96C64.5 89.3731 69.873 84 76.5 84C83.127 84 88.5 89.3731 88.5 96C88.5 102.627 83.127 108 76.5 108C69.873 108 64.5 102.627 64.5 96ZM105.832 136.801C105.4 137.199 104.939 137.52 104.5 137.889V136C104.49 125.551 98.6621 115.977 89.3848 111.168C95.8105 105.756 98.168 96.9043 95.2871 89.0137C92.4062 81.1211 84.9004 75.8711 76.5 75.8711C68.0996 75.8711 60.5938 81.1211 57.7129 89.0137C54.832 96.9043 57.1895 105.756 63.6152 111.168C54.3379 115.977 48.5098 125.551 48.5 136V137.908C48.0566 137.545 47.5957 137.203 47.168 136.82C38.8789 129.387 33.7129 119.09 32.7129 108H40.5V100H32.7031C34.6582 78.8828 51.3828 62.1582 72.5 60.2031V68H80.5V60.2031C101.617 62.1582 118.342 78.8828 120.297 100H112.5V108H120.287C119.287 119.09 114.121 129.387 105.832 136.82V136.801Z" fill="white"/>
<path d="M228.5 72C230.709 72 232.5 70.209 232.5 68V20C232.5 17.791 230.709 16 228.5 16H140.5C138.291 16 136.5 17.791 136.5 20V68C136.5 70.209 138.291 72 140.5 72H228.5ZM144.5 24H224.5V64H144.5V24Z" fill="white"/>
<path d="M152.5 32H168.5V40H152.5V32ZM176.5 32H216.5V40H176.5V32ZM152.5 48H216.5V56H152.5V48ZM227.793 80C224.695 80.0059 221.707 81.1426 219.393 83.1992L184.5 113.961V80H176.5V120H177.656L154.9 140.08C140.096 140.928 128.518 153.17 128.5 168V175.057C128.516 179.025 126.271 182.66 122.713 184.42C121.051 185.248 120.178 187.111 120.604 188.918C121.029 190.725 122.643 192.002 124.5 192H152.5C167.33 191.982 179.572 180.404 180.42 165.6L237.324 101.111C240.627 97.3652 241.43 92.0312 239.373 87.4785C237.318 82.9258 232.787 80 227.793 80ZM152.5 184H134.207C135.717 181.262 136.506 178.184 136.5 175.057V168C136.514 157.58 144.514 148.91 154.9 148.064L172.436 165.6C171.592 175.986 162.92 183.988 152.5 184ZM231.324 95.8203L176.32 158.16L162.34 144.184L224.68 89.1758C226.545 87.5391 229.359 87.6309 231.115 89.3848C232.869 91.1406 232.961 93.9551 231.324 95.8203ZM4.49999 220H92.5C94.709 220 96.5 218.209 96.5 216V184C96.5 181.791 94.709 180 92.5 180H64.5V160H56.5V180H4.49999C2.291 180 0.499985 181.791 0.499985 184V216C0.499985 218.209 2.291 220 4.49999 220ZM8.49999 188H88.5V212H8.49999V188Z" fill="white"/>
<path d="M16.5 196H36.5V204H16.5V196ZM44.5 196H80.5V204H44.5V196ZM4.49998 56H44.5C46.709 56 48.5 54.209 48.5 52V20C48.5 17.791 46.709 16 44.5 16H4.49998C2.291 16 0.499985 17.791 0.499985 20V52C0.499985 54.209 2.291 56 4.49998 56ZM8.49998 24H40.5V48H8.49998V24Z" fill="white"/>
<path d="M16.5 32H32.5V40H16.5V32Z" fill="white"/>
</g>
<defs>
<clipPath id="clip0">
<rect width="240" height="240" fill="white"/>
</clipPath>
</defs>
</svg>
