<svg width="512" height="512" viewBox="0 0 512 512" fill="none" xmlns="http://www.w3.org/2000/svg">
<path d="M473.885 212.673C466.527 208.87 457.477 211.755 453.674 219.114L436.219 252.897L419.416 219.292C416.876 214.21 411.682 211 406 211C400.318 211 395.124 214.21 392.584 219.292L376 252.459L359.416 219.292C356.728 213.913 351.098 210.666 345.082 211.028L344.174 211.084C337.49 211.494 332.102 216.222 330.548 222.387C329.526 218.279 326.791 214.624 322.708 212.583C315.301 208.88 306.289 211.881 302.584 219.291L286 252.459L269.417 219.292C266.875 214.21 261.682 211 256 211C250.318 211 245.125 214.21 242.583 219.292L226 252.459L209.417 219.292C205.712 211.883 196.701 208.879 189.292 212.584C185.209 214.625 182.474 218.28 181.452 222.387C179.899 216.222 174.51 211.493 167.826 211.083L166.918 211.027C160.914 210.657 155.273 213.912 152.584 219.291L136 252.459L119.417 219.292C113.956 208.397 98.164 208.131 92.584 219.292L75.781 252.898L58.326 219.116C54.524 211.756 45.475 208.873 38.115 212.675C30.755 216.478 27.871 225.527 31.674 232.887L62.674 292.887C68.301 303.779 83.929 303.685 89.417 292.71L106 259.541L122.584 292.708C128.108 303.755 143.906 303.73 149.417 292.708L177.366 236.808C179.332 234.897 180.777 232.444 181.463 229.673C181.724 230.702 182.09 231.719 182.584 232.708L212.584 292.708C218.108 303.755 233.906 303.73 239.417 292.708L256 259.541L272.583 292.708C278.107 303.755 293.906 303.731 299.416 292.708L329.416 232.707C329.91 231.719 330.276 230.702 330.537 229.673C331.223 232.445 332.668 234.899 334.635 236.81L362.584 292.708C368.106 303.755 383.907 303.73 389.416 292.708L406 259.541L422.584 292.708C428.065 303.673 443.694 303.786 449.326 292.885L480.326 232.884C484.129 225.524 481.245 216.475 473.885 212.673Z" fill="white"/>
<path d="M493.032 159.329C454.912 66.291 362.617 0 256 0C149.356 0 57.078 66.314 18.969 159.328C7.501 167.492 0 180.882 0 196V316C0 331.118 7.501 344.508 18.969 352.672C57.087 445.707 149.381 512 256 512C362.644 512 454.921 445.686 493.032 352.671C504.499 344.507 512 331.117 512 316V196C512 180.883 504.499 167.493 493.032 159.329ZM456.045 151H379.358C369.825 110.155 354.945 74.988 336.014 48.742C334.691 46.909 333.352 45.131 331.999 43.397C384.608 62.44 429.425 100.687 456.045 151ZM271 32.512C312.045 46.293 337.711 108.43 348.486 151H271V32.512ZM241 32.512V151H163.513C172.129 116.961 184.711 87.927 200.317 66.292C209.693 53.294 223.639 38.341 241 32.512ZM180.001 43.397C178.648 45.131 177.309 46.908 175.986 48.742C157.055 74.988 142.174 110.155 132.642 151H55.955C82.575 100.687 127.391 62.44 180.001 43.397ZM55.955 361H132.642C141.372 398.405 156.369 438.315 180.001 468.603C127.391 449.56 82.575 411.313 55.955 361ZM241 479.488C199.955 465.707 174.288 403.57 163.513 361H241V479.488ZM271 479.488V360.8H348.487C337.695 403.433 311.958 465.736 271 479.488ZM331.999 468.603C355.628 438.319 370.627 398.213 379.358 360.8H456.045C429.425 411.113 384.609 449.56 331.999 468.603ZM482 316C482 324.271 475.271 331 467 331C457.483 331 55.88 331 45 331C36.729 331 30 324.271 30 316V196C30 187.729 36.729 181 45 181C56.435 181 456.732 181 467 181C475.271 181 482 187.729 482 196V316Z" fill="white"/>
</svg>
